<svg width="24" height="25" viewBox="0 0 24 25" fill="none" xmlns="http://www.w3.org/2000/svg">
<path d="M10.4962 4.25122C3.62469 5.58455 3 12.2512 3 12.2512M3 12.2512V16.5031C3 17.1983 3 17.5459 3.05736 17.835C3.2937 19.0263 4.22493 19.9575 5.41618 20.1939C5.70527 20.2512 6.05289 20.2512 6.74812 20.2512V20.2512C7.44335 20.2512 7.79097 20.2512 8.08006 20.1939C9.2713 19.9575 10.2025 19.0263 10.4389 17.835C10.4962 17.5459 10.4962 17.1983 10.4962 16.5031V16.2512C10.4962 15.3212 10.4962 14.8563 10.394 14.4748C10.1166 13.4395 9.30797 12.6308 8.2727 12.3534C7.8912 12.2512 7.42621 12.2512 6.49624 12.2512H3Z" stroke="white" stroke-width="1.5"/>
<path d="M21 4.25122C14.1285 5.58455 13.5038 12.2512 13.5038 12.2512M13.5038 12.2512V16.5031C13.5038 17.1983 13.5038 17.5459 13.5611 17.835C13.7975 19.0263 14.7287 19.9575 15.9199 20.1939C16.209 20.2512 16.5567 20.2512 17.2519 20.2512V20.2512C17.9471 20.2512 18.2947 20.2512 18.5838 20.1939C19.7751 19.9575 20.7063 19.0263 20.9427 17.835C21 17.5459 21 17.1983 21 16.5031V16.2512C21 15.3212 21 14.8563 20.8978 14.4748C20.6204 13.4395 19.8117 12.6308 18.7765 12.3534C18.395 12.2512 17.93 12.2512 17 12.2512H13.5038Z" stroke="white" stroke-width="1.5"/>
</svg>
